<?xml version="1.0" encoding="UTF-8" standalone="no"?>
<!DOCTYPE svg PUBLIC "-//W3C//DTD SVG 1.1//EN"
 "http://www.w3.org/Graphics/SVG/1.1/DTD/svg11.dtd">
<!-- Generated by graphviz version 2.40.1 (20161225.0304)
 -->
<!-- Title: %3 Pages: 1 -->
<svg width="1434pt" height="231pt"
 viewBox="0.00 0.00 1433.50 231.00" xmlns="http://www.w3.org/2000/svg" xmlns:xlink="http://www.w3.org/1999/xlink">
<g id="graph0" class="graph" transform="scale(1 1) rotate(0) translate(4 227)">
<title>%3</title>
<polygon fill="#333333" stroke="transparent" points="-4,4 -4,-227 1429.5,-227 1429.5,4 -4,4"/>
<text text-anchor="middle" x="712.75" y="-9.2" font-family="Times,serif" font-size="16.00" fill="#ffffff">Network Map</text>
<!-- ( -->
<g id="node1" class="node">
<title>(</title>
<polygon fill="#006699" stroke="#006699" points="63,-99 0,-99 0,-26 63,-26 63,-99"/>
<text text-anchor="middle" x="31.5" y="-58.8" font-family="Helvetica,sans-Serif" font-size="14.00" fill="#ffffff">(</text>
</g>
<!-- (SW1, Eth0/1) -->
<g id="node2" class="node">
<title>(SW1, Eth0/1)</title>
<polygon fill="#006699" stroke="#006699" points="225.5,-99 81.5,-99 81.5,-26 225.5,-26 225.5,-99"/>
<text text-anchor="middle" x="153.5" y="-58.8" font-family="Helvetica,sans-Serif" font-size="14.00" fill="#ffffff">(SW1, Eth0/1)</text>
</g>
<!-- (R1, Eth0/0) -->
<g id="node3" class="node">
<title>(R1, Eth0/0)</title>
<polygon fill="#006699" stroke="#006699" points="260,-223 129,-223 129,-150 260,-150 260,-223"/>
<text text-anchor="middle" x="194.5" y="-182.8" font-family="Helvetica,sans-Serif" font-size="14.00" fill="#ffffff">(R1, Eth0/0)</text>
</g>
<!-- (SW1, Eth0/1)&#45;&#45;(R1, Eth0/0) -->
<g id="edge1" class="edge">
<title>(SW1, Eth0/1)&#45;&#45;(R1, Eth0/0)</title>
<path fill="none" stroke="#00ff00" stroke-dasharray="5,2" d="M110.7854,-99.2615C103.7092,-109.6217 100.405,-121.056 106.5,-132 111.9211,-141.7339 119.8779,-149.9496 128.8243,-156.8116"/>
<text text-anchor="middle" x="156.5" y="-120.8" font-family="Courier,monospace" font-size="14.00" fill="#ffffff"> &#160;&#160;&#160;&#160;&#160;&#160;&#160;&#160;&#160;&#160;&#160;</text>
<text text-anchor="middle" x="78.8243" y="-145.6116" font-family="Courier,monospace" font-size="14.00" fill="#ffffff">(R1, Eth0/0)</text>
<text text-anchor="middle" x="56.7854" y="-103.0615" font-family="Courier,monospace" font-size="14.00" fill="#ffffff">(SW1, Eth0/1)</text>
</g>
<!-- (R1, Eth0/0)&#45;&#45;(SW1, Eth0/1) -->
<g id="edge5" class="edge">
<title>(R1, Eth0/0)&#45;&#45;(SW1, Eth0/1)</title>
<path fill="none" stroke="#00ff00" stroke-dasharray="5,2" d="M208.2536,-149.9685C210.3876,-139.0899 210.6921,-127.3238 206.5,-117 203.9179,-110.6412 200.1981,-104.617 195.9091,-99.0539"/>
<text text-anchor="middle" x="260.5" y="-120.8" font-family="Courier,monospace" font-size="14.00" fill="#ffffff"> &#160;&#160;&#160;&#160;&#160;&#160;&#160;&#160;&#160;&#160;&#160;</text>
<text text-anchor="middle" x="249.9091" y="-102.8539" font-family="Courier,monospace" font-size="14.00" fill="#ffffff">(SW1, Eth0/1)</text>
<text text-anchor="middle" x="258.2536" y="-138.7685" font-family="Courier,monospace" font-size="14.00" fill="#ffffff">(R1, Eth0/0)</text>
</g>
<!-- (SW1, Eth0/2) -->
<g id="node4" class="node">
<title>(SW1, Eth0/2)</title>
<polygon fill="#006699" stroke="#006699" points="478.5,-99 334.5,-99 334.5,-26 478.5,-26 478.5,-99"/>
<text text-anchor="middle" x="406.5" y="-58.8" font-family="Helvetica,sans-Serif" font-size="14.00" fill="#ffffff">(SW1, Eth0/2)</text>
</g>
<!-- (R2, Eth0/0) -->
<g id="node5" class="node">
<title>(R2, Eth0/0)</title>
<polygon fill="#006699" stroke="#006699" points="464,-223 333,-223 333,-150 464,-150 464,-223"/>
<text text-anchor="middle" x="398.5" y="-182.8" font-family="Helvetica,sans-Serif" font-size="14.00" fill="#ffffff">(R2, Eth0/0)</text>
</g>
<!-- (SW1, Eth0/2)&#45;&#45;(R2, Eth0/0) -->
<g id="edge2" class="edge">
<title>(SW1, Eth0/2)&#45;&#45;(R2, Eth0/0)</title>
<path fill="none" stroke="#00ff00" stroke-dasharray="5,2" d="M374.1812,-99.1113C370.6334,-104.7854 367.5639,-110.8235 365.5,-117 361.8595,-127.8949 364.3891,-139.3132 369.3542,-149.6736"/>
<text text-anchor="middle" x="415.5" y="-120.8" font-family="Courier,monospace" font-size="14.00" fill="#ffffff"> &#160;&#160;&#160;&#160;&#160;&#160;&#160;&#160;&#160;&#160;&#160;</text>
<text text-anchor="middle" x="419.3542" y="-138.4736" font-family="Courier,monospace" font-size="14.00" fill="#ffffff">(R2, Eth0/0)</text>
<text text-anchor="middle" x="401.1812" y="-102.9113" font-family="Courier,monospace" font-size="14.00" fill="#ffffff">(SW1, Eth0/2)</text>
</g>
<!-- (R2, Eth0/0)&#45;&#45;(SW1, Eth0/2) -->
<g id="edge6" class="edge">
<title>(R2, Eth0/0)&#45;&#45;(SW1, Eth0/2)</title>
<path fill="none" stroke="#00ff00" stroke-dasharray="5,2" d="M453.1946,-149.9017C458.1211,-144.4778 462.4087,-138.4995 465.5,-132 471.0065,-120.4226 467.1218,-109.2137 459.2374,-99.2991"/>
<text text-anchor="middle" x="518.5" y="-120.8" font-family="Courier,monospace" font-size="14.00" fill="#ffffff"> &#160;&#160;&#160;&#160;&#160;&#160;&#160;&#160;&#160;&#160;&#160;</text>
<text text-anchor="middle" x="513.2374" y="-103.0991" font-family="Courier,monospace" font-size="14.00" fill="#ffffff">(SW1, Eth0/2)</text>
<text text-anchor="middle" x="503.1946" y="-153.7017" font-family="Courier,monospace" font-size="14.00" fill="#ffffff">(R2, Eth0/0)</text>
</g>
<!-- (SW1, Eth0/3) -->
<g id="node6" class="node">
<title>(SW1, Eth0/3)</title>
<polygon fill="#006699" stroke="#006699" points="724.5,-99 580.5,-99 580.5,-26 724.5,-26 724.5,-99"/>
<text text-anchor="middle" x="652.5" y="-58.8" font-family="Helvetica,sans-Serif" font-size="14.00" fill="#ffffff">(SW1, Eth0/3)</text>
</g>
<!-- (R3, Eth0/0) -->
<g id="node7" class="node">
<title>(R3, Eth0/0)</title>
<polygon fill="#006699" stroke="#006699" points="724,-223 593,-223 593,-150 724,-150 724,-223"/>
<text text-anchor="middle" x="658.5" y="-182.8" font-family="Helvetica,sans-Serif" font-size="14.00" fill="#ffffff">(R3, Eth0/0)</text>
</g>
<!-- (SW1, Eth0/3)&#45;&#45;(R3, Eth0/0) -->
<g id="edge3" class="edge">
<title>(SW1, Eth0/3)&#45;&#45;(R3, Eth0/0)</title>
<path fill="none" stroke="#00ff00" stroke-dasharray="5,2" d="M616.506,-99.1614C610.4783,-109.4265 607.3518,-120.8382 611.5,-132 613.8068,-138.2072 617.173,-144.1802 621.061,-149.7499"/>
<text text-anchor="middle" x="661.5" y="-120.8" font-family="Courier,monospace" font-size="14.00" fill="#ffffff"> &#160;&#160;&#160;&#160;&#160;&#160;&#160;&#160;&#160;&#160;&#160;</text>
<text text-anchor="middle" x="571.061" y="-138.5499" font-family="Courier,monospace" font-size="14.00" fill="#ffffff">(R3, Eth0/0)</text>
<text text-anchor="middle" x="643.506" y="-102.9614" font-family="Courier,monospace" font-size="14.00" fill="#ffffff">(SW1, Eth0/3)</text>
</g>
<!-- (R3, Eth0/0)&#45;&#45;(SW1, Eth0/3) -->
<g id="edge8" class="edge">
<title>(R3, Eth0/0)&#45;&#45;(SW1, Eth0/3)</title>
<path fill="none" stroke="#00ff00" stroke-dasharray="5,2" d="M705.3166,-149.9874C712.7532,-139.9001 716.5493,-128.538 711.5,-117 708.7048,-110.6127 704.7507,-104.6414 700.1972,-99.1673"/>
<text text-anchor="middle" x="764.5" y="-120.8" font-family="Courier,monospace" font-size="14.00" fill="#ffffff"> &#160;&#160;&#160;&#160;&#160;&#160;&#160;&#160;&#160;&#160;&#160;</text>
<text text-anchor="middle" x="754.1972" y="-102.9673" font-family="Courier,monospace" font-size="14.00" fill="#ffffff">(SW1, Eth0/3)</text>
<text text-anchor="middle" x="755.3166" y="-138.7874" font-family="Courier,monospace" font-size="14.00" fill="#ffffff">(R3, Eth0/0)</text>
</g>
<!-- (SW1, Eth0/5) -->
<g id="node8" class="node">
<title>(SW1, Eth0/5)</title>
<polygon fill="#006699" stroke="#006699" points="928.5,-99 784.5,-99 784.5,-26 928.5,-26 928.5,-99"/>
<text text-anchor="middle" x="856.5" y="-58.8" font-family="Helvetica,sans-Serif" font-size="14.00" fill="#ffffff">(SW1, Eth0/5)</text>
</g>
<!-- (R6, Eth0/1) -->
<g id="node9" class="node">
<title>(R6, Eth0/1)</title>
<polygon fill="#006699" stroke="#006699" points="922,-223 791,-223 791,-150 922,-150 922,-223"/>
<text text-anchor="middle" x="856.5" y="-182.8" font-family="Helvetica,sans-Serif" font-size="14.00" fill="#ffffff">(R6, Eth0/1)</text>
</g>
<!-- (SW1, Eth0/5)&#45;&#45;(R6, Eth0/1) -->
<g id="edge4" class="edge">
<title>(SW1, Eth0/5)&#45;&#45;(R6, Eth0/1)</title>
<path fill="none" stroke="#00ff00" stroke-dasharray="5,2" d="M856.5,-99.0334C856.5,-115.0358 856.5,-133.7778 856.5,-149.7992"/>
<text text-anchor="middle" x="906.5" y="-120.8" font-family="Courier,monospace" font-size="14.00" fill="#ffffff"> &#160;&#160;&#160;&#160;&#160;&#160;&#160;&#160;&#160;&#160;&#160;</text>
<text text-anchor="middle" x="906.5" y="-138.5992" font-family="Courier,monospace" font-size="14.00" fill="#ffffff">(R6, Eth0/1)</text>
<text text-anchor="middle" x="910.5" y="-102.8334" font-family="Courier,monospace" font-size="14.00" fill="#ffffff">(SW1, Eth0/5)</text>
</g>
<!-- (R2, Eth0/1) -->
<g id="node10" class="node">
<title>(R2, Eth0/1)</title>
<polygon fill="#006699" stroke="#006699" points="1082,-99 951,-99 951,-26 1082,-26 1082,-99"/>
<text text-anchor="middle" x="1016.5" y="-58.8" font-family="Helvetica,sans-Serif" font-size="14.00" fill="#ffffff">(R2, Eth0/1)</text>
</g>
<!-- (SW2, Eth0/11) -->
<g id="node11" class="node">
<title>(SW2, Eth0/11)</title>
<polygon fill="#006699" stroke="#006699" points="1092.5,-223 940.5,-223 940.5,-150 1092.5,-150 1092.5,-223"/>
<text text-anchor="middle" x="1016.5" y="-182.8" font-family="Helvetica,sans-Serif" font-size="14.00" fill="#ffffff">(SW2, Eth0/11)</text>
</g>
<!-- (R2, Eth0/1)&#45;&#45;(SW2, Eth0/11) -->
<g id="edge7" class="edge">
<title>(R2, Eth0/1)&#45;&#45;(SW2, Eth0/11)</title>
<path fill="none" stroke="#00ff00" stroke-dasharray="5,2" d="M1016.5,-99.0334C1016.5,-115.0358 1016.5,-133.7778 1016.5,-149.7992"/>
<text text-anchor="middle" x="1066.5" y="-120.8" font-family="Courier,monospace" font-size="14.00" fill="#ffffff"> &#160;&#160;&#160;&#160;&#160;&#160;&#160;&#160;&#160;&#160;&#160;</text>
<text text-anchor="middle" x="1074.5" y="-138.5992" font-family="Courier,monospace" font-size="14.00" fill="#ffffff">(SW2, Eth0/11)</text>
<text text-anchor="middle" x="1066.5" y="-102.8334" font-family="Courier,monospace" font-size="14.00" fill="#ffffff">(R2, Eth0/1)</text>
</g>
<!-- (R3, Eth0/1) -->
<g id="node12" class="node">
<title>(R3, Eth0/1)</title>
<polygon fill="#006699" stroke="#006699" points="1242,-99 1111,-99 1111,-26 1242,-26 1242,-99"/>
<text text-anchor="middle" x="1176.5" y="-58.8" font-family="Helvetica,sans-Serif" font-size="14.00" fill="#ffffff">(R3, Eth0/1)</text>
</g>
<!-- (R4, Eth0/0) -->
<g id="node13" class="node">
<title>(R4, Eth0/0)</title>
<polygon fill="#006699" stroke="#006699" points="1242,-223 1111,-223 1111,-150 1242,-150 1242,-223"/>
<text text-anchor="middle" x="1176.5" y="-182.8" font-family="Helvetica,sans-Serif" font-size="14.00" fill="#ffffff">(R4, Eth0/0)</text>
</g>
<!-- (R3, Eth0/1)&#45;&#45;(R4, Eth0/0) -->
<g id="edge9" class="edge">
<title>(R3, Eth0/1)&#45;&#45;(R4, Eth0/0)</title>
<path fill="none" stroke="#00ff00" stroke-dasharray="5,2" d="M1176.5,-99.0334C1176.5,-115.0358 1176.5,-133.7778 1176.5,-149.7992"/>
<text text-anchor="middle" x="1226.5" y="-120.8" font-family="Courier,monospace" font-size="14.00" fill="#ffffff"> &#160;&#160;&#160;&#160;&#160;&#160;&#160;&#160;&#160;&#160;&#160;</text>
<text text-anchor="middle" x="1226.5" y="-138.5992" font-family="Courier,monospace" font-size="14.00" fill="#ffffff">(R4, Eth0/0)</text>
<text text-anchor="middle" x="1226.5" y="-102.8334" font-family="Courier,monospace" font-size="14.00" fill="#ffffff">(R3, Eth0/1)</text>
</g>
<!-- (R3, Eth0/2) -->
<g id="node14" class="node">
<title>(R3, Eth0/2)</title>
<polygon fill="#006699" stroke="#006699" points="1391,-99 1260,-99 1260,-26 1391,-26 1391,-99"/>
<text text-anchor="middle" x="1325.5" y="-58.8" font-family="Helvetica,sans-Serif" font-size="14.00" fill="#ffffff">(R3, Eth0/2)</text>
</g>
<!-- (R5, Eth0/0) -->
<g id="node15" class="node">
<title>(R5, Eth0/0)</title>
<polygon fill="#006699" stroke="#006699" points="1391,-223 1260,-223 1260,-150 1391,-150 1391,-223"/>
<text text-anchor="middle" x="1325.5" y="-182.8" font-family="Helvetica,sans-Serif" font-size="14.00" fill="#ffffff">(R5, Eth0/0)</text>
</g>
<!-- (R3, Eth0/2)&#45;&#45;(R5, Eth0/0) -->
<g id="edge10" class="edge">
<title>(R3, Eth0/2)&#45;&#45;(R5, Eth0/0)</title>
<path fill="none" stroke="#00ff00" stroke-dasharray="5,2" d="M1325.5,-99.0334C1325.5,-115.0358 1325.5,-133.7778 1325.5,-149.7992"/>
<text text-anchor="middle" x="1375.5" y="-120.8" font-family="Courier,monospace" font-size="14.00" fill="#ffffff"> &#160;&#160;&#160;&#160;&#160;&#160;&#160;&#160;&#160;&#160;&#160;</text>
<text text-anchor="middle" x="1375.5" y="-138.5992" font-family="Courier,monospace" font-size="14.00" fill="#ffffff">(R5, Eth0/0)</text>
<text text-anchor="middle" x="1375.5" y="-102.8334" font-family="Courier,monospace" font-size="14.00" fill="#ffffff">(R3, Eth0/2)</text>
</g>
</g>
</svg>
